<mxfile host="app.diagrams.net" modified="2022-03-03T16:28:42.097Z" agent="5.0 (Windows NT 10.0; Win64; x64) AppleWebKit/537.36 (KHTML, like Gecko) Chrome/98.0.4758.102 Safari/537.36 Edg/98.0.1108.62" etag="xToWRuGpkxAy78qhT-Rk" version="16.6.5" type="github">
  <diagram id="y3QiWWvVLMp9Rzac0zrA" name="Page-1">
    <mxGraphModel dx="1038" dy="547" grid="1" gridSize="10" guides="1" tooltips="1" connect="1" arrows="1" fold="1" page="1" pageScale="1" pageWidth="1169" pageHeight="827" math="0" shadow="0">
      <root>
        <mxCell id="0" />
        <mxCell id="1" parent="0" />
        <mxCell id="xCrdhjZaUTvb06V7xQC9-1" value="Pianta" style="rounded=0;whiteSpace=wrap;html=1;strokeWidth=1;perimeterSpacing=0;" parent="1" vertex="1">
          <mxGeometry x="679.5" y="119" width="120" height="40" as="geometry" />
        </mxCell>
        <mxCell id="xCrdhjZaUTvb06V7xQC9-2" value="" style="endArrow=none;html=1;rounded=0;fillColor=#000000;entryX=0.166;entryY=0;entryDx=0;entryDy=0;entryPerimeter=0;exitX=0.5;exitY=1;exitDx=0;exitDy=0;" parent="1" source="xCrdhjZaUTvb06V7xQC9-3" edge="1">
          <mxGeometry width="50" height="50" relative="1" as="geometry">
            <mxPoint x="689.5" y="99" as="sourcePoint" />
            <mxPoint x="689.4199999999998" y="119" as="targetPoint" />
          </mxGeometry>
        </mxCell>
        <mxCell id="xCrdhjZaUTvb06V7xQC9-3" value="" style="ellipse;whiteSpace=wrap;html=1;aspect=fixed;strokeWidth=1;fillColor=#000000;" parent="1" vertex="1">
          <mxGeometry x="684.5" y="79" width="10" height="10" as="geometry" />
        </mxCell>
        <mxCell id="xCrdhjZaUTvb06V7xQC9-4" value="Codice" style="text;html=1;align=center;verticalAlign=middle;resizable=0;points=[];autosize=1;strokeColor=none;fillColor=none;" parent="1" vertex="1">
          <mxGeometry x="664.5" y="59" width="50" height="20" as="geometry" />
        </mxCell>
        <mxCell id="xCrdhjZaUTvb06V7xQC9-5" value="" style="endArrow=none;html=1;rounded=0;fillColor=#000000;entryX=0.166;entryY=0;entryDx=0;entryDy=0;entryPerimeter=0;exitX=0.5;exitY=1;exitDx=0;exitDy=0;" parent="1" source="xCrdhjZaUTvb06V7xQC9-6" edge="1">
          <mxGeometry width="50" height="50" relative="1" as="geometry">
            <mxPoint x="739.5" y="99" as="sourcePoint" />
            <mxPoint x="739.4199999999998" y="119" as="targetPoint" />
          </mxGeometry>
        </mxCell>
        <mxCell id="xCrdhjZaUTvb06V7xQC9-6" value="" style="ellipse;whiteSpace=wrap;html=1;aspect=fixed;strokeWidth=1;fillColor=none;" parent="1" vertex="1">
          <mxGeometry x="734.5" y="79" width="10" height="10" as="geometry" />
        </mxCell>
        <mxCell id="xCrdhjZaUTvb06V7xQC9-7" value="Nome &lt;br&gt;latino" style="text;html=1;align=center;verticalAlign=middle;resizable=0;points=[];autosize=1;strokeColor=none;fillColor=none;" parent="1" vertex="1">
          <mxGeometry x="714.5" y="49" width="50" height="30" as="geometry" />
        </mxCell>
        <mxCell id="xCrdhjZaUTvb06V7xQC9-8" value="" style="endArrow=none;html=1;rounded=0;fillColor=#000000;entryX=0.166;entryY=0;entryDx=0;entryDy=0;entryPerimeter=0;exitX=0.5;exitY=1;exitDx=0;exitDy=0;" parent="1" source="xCrdhjZaUTvb06V7xQC9-9" edge="1">
          <mxGeometry width="50" height="50" relative="1" as="geometry">
            <mxPoint x="789.5" y="99" as="sourcePoint" />
            <mxPoint x="789.4199999999998" y="119" as="targetPoint" />
          </mxGeometry>
        </mxCell>
        <mxCell id="xCrdhjZaUTvb06V7xQC9-9" value="" style="ellipse;whiteSpace=wrap;html=1;aspect=fixed;strokeWidth=1;fillColor=none;" parent="1" vertex="1">
          <mxGeometry x="784.5" y="79" width="10" height="10" as="geometry" />
        </mxCell>
        <mxCell id="xCrdhjZaUTvb06V7xQC9-10" value="Nome &lt;br&gt;comune" style="text;html=1;align=center;verticalAlign=middle;resizable=0;points=[];autosize=1;strokeColor=none;fillColor=none;" parent="1" vertex="1">
          <mxGeometry x="759.5" y="49" width="60" height="30" as="geometry" />
        </mxCell>
        <mxCell id="xCrdhjZaUTvb06V7xQC9-11" value="Prezzo" style="rounded=0;whiteSpace=wrap;html=1;strokeWidth=1;perimeterSpacing=0;" parent="1" vertex="1">
          <mxGeometry x="279.5" y="119" width="120" height="40" as="geometry" />
        </mxCell>
        <mxCell id="xCrdhjZaUTvb06V7xQC9-12" value="valutazione" style="rhombus;whiteSpace=wrap;html=1;" parent="1" vertex="1">
          <mxGeometry x="479.5" y="119" width="120" height="40" as="geometry" />
        </mxCell>
        <mxCell id="xCrdhjZaUTvb06V7xQC9-13" value="" style="endArrow=none;html=1;rounded=0;entryX=0;entryY=0.5;entryDx=0;entryDy=0;exitX=1;exitY=0.5;exitDx=0;exitDy=0;" parent="1" source="xCrdhjZaUTvb06V7xQC9-12" target="xCrdhjZaUTvb06V7xQC9-1" edge="1">
          <mxGeometry width="50" height="50" relative="1" as="geometry">
            <mxPoint x="569.5" y="239" as="sourcePoint" />
            <mxPoint x="619.5" y="189" as="targetPoint" />
          </mxGeometry>
        </mxCell>
        <mxCell id="xCrdhjZaUTvb06V7xQC9-14" value="" style="endArrow=none;html=1;rounded=0;entryX=1;entryY=0.5;entryDx=0;entryDy=0;exitX=0;exitY=0.5;exitDx=0;exitDy=0;" parent="1" source="xCrdhjZaUTvb06V7xQC9-12" target="xCrdhjZaUTvb06V7xQC9-11" edge="1">
          <mxGeometry width="50" height="50" relative="1" as="geometry">
            <mxPoint x="569.5" y="239" as="sourcePoint" />
            <mxPoint x="619.5" y="189" as="targetPoint" />
          </mxGeometry>
        </mxCell>
        <mxCell id="xCrdhjZaUTvb06V7xQC9-15" value="" style="endArrow=none;html=1;rounded=0;fillColor=#000000;entryX=0.166;entryY=0;entryDx=0;entryDy=0;entryPerimeter=0;exitX=0.5;exitY=1;exitDx=0;exitDy=0;" parent="1" source="xCrdhjZaUTvb06V7xQC9-16" edge="1">
          <mxGeometry width="50" height="50" relative="1" as="geometry">
            <mxPoint x="299" y="99" as="sourcePoint" />
            <mxPoint x="298.91999999999985" y="119" as="targetPoint" />
          </mxGeometry>
        </mxCell>
        <mxCell id="xCrdhjZaUTvb06V7xQC9-16" value="" style="ellipse;whiteSpace=wrap;html=1;aspect=fixed;strokeWidth=1;fillColor=none;" parent="1" vertex="1">
          <mxGeometry x="294" y="79" width="10" height="10" as="geometry" />
        </mxCell>
        <mxCell id="xCrdhjZaUTvb06V7xQC9-17" value="" style="endArrow=none;html=1;rounded=0;fillColor=#000000;entryX=0.166;entryY=0;entryDx=0;entryDy=0;entryPerimeter=0;exitX=0.5;exitY=1;exitDx=0;exitDy=0;" parent="1" source="xCrdhjZaUTvb06V7xQC9-18" edge="1">
          <mxGeometry width="50" height="50" relative="1" as="geometry">
            <mxPoint x="379" y="99" as="sourcePoint" />
            <mxPoint x="378.91999999999985" y="119" as="targetPoint" />
          </mxGeometry>
        </mxCell>
        <mxCell id="xCrdhjZaUTvb06V7xQC9-18" value="" style="ellipse;whiteSpace=wrap;html=1;aspect=fixed;strokeWidth=1;fillColor=none;" parent="1" vertex="1">
          <mxGeometry x="374" y="79" width="10" height="10" as="geometry" />
        </mxCell>
        <mxCell id="xCrdhjZaUTvb06V7xQC9-20" value="Valore" style="text;html=1;align=center;verticalAlign=middle;resizable=0;points=[];autosize=1;strokeColor=none;fillColor=none;" parent="1" vertex="1">
          <mxGeometry x="274" y="54" width="50" height="20" as="geometry" />
        </mxCell>
        <mxCell id="xCrdhjZaUTvb06V7xQC9-21" value="" style="endArrow=none;html=1;rounded=0;" parent="1" edge="1">
          <mxGeometry width="50" height="50" relative="1" as="geometry">
            <mxPoint x="369.5" y="99" as="sourcePoint" />
            <mxPoint x="419.5" y="149" as="targetPoint" />
            <Array as="points">
              <mxPoint x="419.5" y="99" />
            </Array>
          </mxGeometry>
        </mxCell>
        <mxCell id="xCrdhjZaUTvb06V7xQC9-22" value="" style="ellipse;whiteSpace=wrap;html=1;aspect=fixed;strokeWidth=1;fillColor=#000000;" parent="1" vertex="1">
          <mxGeometry x="414" y="149" width="10" height="10" as="geometry" />
        </mxCell>
        <mxCell id="xCrdhjZaUTvb06V7xQC9-23" value="(1,N)" style="text;html=1;align=center;verticalAlign=middle;resizable=0;points=[];autosize=1;strokeColor=none;fillColor=none;" parent="1" vertex="1">
          <mxGeometry x="639.5" y="119" width="40" height="20" as="geometry" />
        </mxCell>
        <mxCell id="xCrdhjZaUTvb06V7xQC9-24" value="(1,1)" style="text;html=1;align=center;verticalAlign=middle;resizable=0;points=[];autosize=1;strokeColor=none;fillColor=none;" parent="1" vertex="1">
          <mxGeometry x="419.5" y="119" width="40" height="20" as="geometry" />
        </mxCell>
        <mxCell id="xCrdhjZaUTvb06V7xQC9-25" value="Manager" style="rounded=0;whiteSpace=wrap;html=1;strokeWidth=1;perimeterSpacing=0;" parent="1" vertex="1">
          <mxGeometry x="479.5" y="240" width="120" height="40" as="geometry" />
        </mxCell>
        <mxCell id="xCrdhjZaUTvb06V7xQC9-26" value="realizzazione" style="rhombus;whiteSpace=wrap;html=1;" parent="1" vertex="1">
          <mxGeometry x="479.5" y="360" width="120" height="40" as="geometry" />
        </mxCell>
        <mxCell id="xCrdhjZaUTvb06V7xQC9-27" value="gestione" style="rhombus;whiteSpace=wrap;html=1;" parent="1" vertex="1">
          <mxGeometry x="679.5" y="240" width="120" height="40" as="geometry" />
        </mxCell>
        <mxCell id="xCrdhjZaUTvb06V7xQC9-28" value="decisione" style="rhombus;whiteSpace=wrap;html=1;" parent="1" vertex="1">
          <mxGeometry x="279.5" y="240" width="120" height="40" as="geometry" />
        </mxCell>
        <mxCell id="xCrdhjZaUTvb06V7xQC9-30" value="" style="endArrow=none;html=1;rounded=0;exitX=1;exitY=0.5;exitDx=0;exitDy=0;entryX=0;entryY=0.5;entryDx=0;entryDy=0;" parent="1" source="xCrdhjZaUTvb06V7xQC9-28" target="xCrdhjZaUTvb06V7xQC9-25" edge="1">
          <mxGeometry width="50" height="50" relative="1" as="geometry">
            <mxPoint x="480" y="250" as="sourcePoint" />
            <mxPoint x="530" y="200" as="targetPoint" />
          </mxGeometry>
        </mxCell>
        <mxCell id="xCrdhjZaUTvb06V7xQC9-31" value="" style="endArrow=none;html=1;rounded=0;exitX=0.5;exitY=0;exitDx=0;exitDy=0;entryX=0.5;entryY=1;entryDx=0;entryDy=0;" parent="1" source="xCrdhjZaUTvb06V7xQC9-28" target="xCrdhjZaUTvb06V7xQC9-11" edge="1">
          <mxGeometry width="50" height="50" relative="1" as="geometry">
            <mxPoint x="480" y="250" as="sourcePoint" />
            <mxPoint x="530" y="200" as="targetPoint" />
          </mxGeometry>
        </mxCell>
        <mxCell id="xCrdhjZaUTvb06V7xQC9-32" value="(1,1)" style="text;html=1;align=center;verticalAlign=middle;resizable=0;points=[];autosize=1;strokeColor=none;fillColor=none;" parent="1" vertex="1">
          <mxGeometry x="336" y="162" width="40" height="20" as="geometry" />
        </mxCell>
        <mxCell id="xCrdhjZaUTvb06V7xQC9-33" value="(1,N)" style="text;html=1;align=center;verticalAlign=middle;resizable=0;points=[];autosize=1;strokeColor=none;fillColor=none;" parent="1" vertex="1">
          <mxGeometry x="436" y="238" width="40" height="20" as="geometry" />
        </mxCell>
        <mxCell id="xCrdhjZaUTvb06V7xQC9-34" value="" style="endArrow=none;html=1;rounded=0;entryX=0.5;entryY=1;entryDx=0;entryDy=0;exitX=0.5;exitY=0;exitDx=0;exitDy=0;" parent="1" source="xCrdhjZaUTvb06V7xQC9-27" target="xCrdhjZaUTvb06V7xQC9-1" edge="1">
          <mxGeometry width="50" height="50" relative="1" as="geometry">
            <mxPoint x="720" y="230" as="sourcePoint" />
            <mxPoint x="770" y="180" as="targetPoint" />
          </mxGeometry>
        </mxCell>
        <mxCell id="xCrdhjZaUTvb06V7xQC9-35" value="" style="endArrow=none;html=1;rounded=0;exitX=1;exitY=0.5;exitDx=0;exitDy=0;entryX=0;entryY=0.5;entryDx=0;entryDy=0;" parent="1" source="xCrdhjZaUTvb06V7xQC9-25" target="xCrdhjZaUTvb06V7xQC9-27" edge="1">
          <mxGeometry width="50" height="50" relative="1" as="geometry">
            <mxPoint x="720" y="230" as="sourcePoint" />
            <mxPoint x="770" y="180" as="targetPoint" />
          </mxGeometry>
        </mxCell>
        <mxCell id="xCrdhjZaUTvb06V7xQC9-36" value="(1,1)" style="text;html=1;align=center;verticalAlign=middle;resizable=0;points=[];autosize=1;strokeColor=none;fillColor=none;" parent="1" vertex="1">
          <mxGeometry x="739.5" y="165" width="40" height="20" as="geometry" />
        </mxCell>
        <mxCell id="xCrdhjZaUTvb06V7xQC9-37" value="(1,N)" style="text;html=1;align=center;verticalAlign=middle;resizable=0;points=[];autosize=1;strokeColor=none;fillColor=none;" parent="1" vertex="1">
          <mxGeometry x="599.5" y="240" width="40" height="20" as="geometry" />
        </mxCell>
        <mxCell id="xCrdhjZaUTvb06V7xQC9-38" value="" style="endArrow=none;html=1;rounded=0;exitX=0.5;exitY=0;exitDx=0;exitDy=0;entryX=0.5;entryY=1;entryDx=0;entryDy=0;" parent="1" source="xCrdhjZaUTvb06V7xQC9-26" target="xCrdhjZaUTvb06V7xQC9-25" edge="1">
          <mxGeometry width="50" height="50" relative="1" as="geometry">
            <mxPoint x="500" y="270" as="sourcePoint" />
            <mxPoint x="550" y="220" as="targetPoint" />
          </mxGeometry>
        </mxCell>
        <mxCell id="xCrdhjZaUTvb06V7xQC9-39" value="Pacco" style="rounded=0;whiteSpace=wrap;html=1;strokeWidth=1;perimeterSpacing=0;" parent="1" vertex="1">
          <mxGeometry x="480" y="480" width="120" height="40" as="geometry" />
        </mxCell>
        <mxCell id="xCrdhjZaUTvb06V7xQC9-42" value="Codice" style="text;html=1;align=center;verticalAlign=middle;resizable=0;points=[];autosize=1;strokeColor=none;fillColor=none;" parent="1" vertex="1">
          <mxGeometry x="649.5" y="480" width="50" height="20" as="geometry" />
        </mxCell>
        <mxCell id="xCrdhjZaUTvb06V7xQC9-43" value="" style="endArrow=none;html=1;rounded=0;fillColor=#000000;entryX=1;entryY=0.25;entryDx=0;entryDy=0;exitX=0;exitY=0.5;exitDx=0;exitDy=0;" parent="1" source="xCrdhjZaUTvb06V7xQC9-44" target="xCrdhjZaUTvb06V7xQC9-39" edge="1">
          <mxGeometry width="50" height="50" relative="1" as="geometry">
            <mxPoint x="584" y="459" as="sourcePoint" />
            <mxPoint x="583.9200000000001" y="479" as="targetPoint" />
          </mxGeometry>
        </mxCell>
        <mxCell id="xCrdhjZaUTvb06V7xQC9-44" value="" style="ellipse;whiteSpace=wrap;html=1;aspect=fixed;strokeWidth=1;fillColor=#000000;" parent="1" vertex="1">
          <mxGeometry x="639.5" y="485" width="10" height="10" as="geometry" />
        </mxCell>
        <mxCell id="xCrdhjZaUTvb06V7xQC9-45" value="&lt;span style=&quot;color: rgb(0 , 0 , 0) ; font-family: &amp;#34;helvetica&amp;#34; ; font-size: 12px ; font-style: normal ; font-weight: 400 ; letter-spacing: normal ; text-align: center ; text-indent: 0px ; text-transform: none ; word-spacing: 0px ; background-color: rgb(248 , 249 , 250) ; display: inline ; float: none&quot;&gt;Num. Piante&lt;/span&gt;" style="text;whiteSpace=wrap;html=1;" parent="1" vertex="1">
          <mxGeometry x="655.5" y="495" width="80" height="30" as="geometry" />
        </mxCell>
        <mxCell id="xCrdhjZaUTvb06V7xQC9-49" value="" style="endArrow=none;html=1;rounded=0;fillColor=#000000;exitX=0;exitY=0.5;exitDx=0;exitDy=0;entryX=1;entryY=0.75;entryDx=0;entryDy=0;" parent="1" source="xCrdhjZaUTvb06V7xQC9-50" target="xCrdhjZaUTvb06V7xQC9-39" edge="1">
          <mxGeometry width="50" height="50" relative="1" as="geometry">
            <mxPoint x="584" y="479" as="sourcePoint" />
            <mxPoint x="610" y="510" as="targetPoint" />
          </mxGeometry>
        </mxCell>
        <mxCell id="xCrdhjZaUTvb06V7xQC9-50" value="" style="ellipse;whiteSpace=wrap;html=1;aspect=fixed;strokeWidth=1;fillColor=none;" parent="1" vertex="1">
          <mxGeometry x="639.5" y="505" width="10" height="10" as="geometry" />
        </mxCell>
        <mxCell id="xCrdhjZaUTvb06V7xQC9-51" value="" style="endArrow=none;html=1;rounded=0;entryX=0.5;entryY=0;entryDx=0;entryDy=0;" parent="1" target="xCrdhjZaUTvb06V7xQC9-39" edge="1">
          <mxGeometry width="50" height="50" relative="1" as="geometry">
            <mxPoint x="540" y="400" as="sourcePoint" />
            <mxPoint x="590" y="350" as="targetPoint" />
          </mxGeometry>
        </mxCell>
        <mxCell id="xCrdhjZaUTvb06V7xQC9-52" value="(1,1)" style="text;html=1;align=center;verticalAlign=middle;resizable=0;points=[];autosize=1;strokeColor=none;fillColor=none;" parent="1" vertex="1">
          <mxGeometry x="536" y="459" width="40" height="20" as="geometry" />
        </mxCell>
        <mxCell id="xCrdhjZaUTvb06V7xQC9-53" value="(1,N)" style="text;html=1;align=center;verticalAlign=middle;resizable=0;points=[];autosize=1;strokeColor=none;fillColor=none;" parent="1" vertex="1">
          <mxGeometry x="536" y="280" width="40" height="20" as="geometry" />
        </mxCell>
        <mxCell id="VM5iFO8BAajWmUZdtVKz-1" value="Data inizio" style="text;html=1;align=center;verticalAlign=middle;resizable=0;points=[];autosize=1;strokeColor=none;fillColor=none;" vertex="1" parent="1">
          <mxGeometry x="345" y="55" width="70" height="20" as="geometry" />
        </mxCell>
        <mxCell id="VM5iFO8BAajWmUZdtVKz-2" value="" style="ellipse;whiteSpace=wrap;html=1;aspect=fixed;strokeWidth=1;fillColor=none;" vertex="1" parent="1">
          <mxGeometry x="230" y="124" width="10" height="10" as="geometry" />
        </mxCell>
        <mxCell id="VM5iFO8BAajWmUZdtVKz-3" value="" style="endArrow=none;html=1;rounded=0;entryX=0;entryY=0.25;entryDx=0;entryDy=0;exitX=1;exitY=0.5;exitDx=0;exitDy=0;" edge="1" parent="1" source="VM5iFO8BAajWmUZdtVKz-2" target="xCrdhjZaUTvb06V7xQC9-11">
          <mxGeometry width="50" height="50" relative="1" as="geometry">
            <mxPoint x="170" y="140" as="sourcePoint" />
            <mxPoint x="220" y="90" as="targetPoint" />
          </mxGeometry>
        </mxCell>
        <mxCell id="VM5iFO8BAajWmUZdtVKz-4" value="Data fine" style="text;html=1;align=center;verticalAlign=middle;resizable=0;points=[];autosize=1;strokeColor=none;fillColor=none;" vertex="1" parent="1">
          <mxGeometry x="170" y="119" width="60" height="20" as="geometry" />
        </mxCell>
        <mxCell id="VM5iFO8BAajWmUZdtVKz-6" value="" style="endArrow=none;html=1;rounded=0;fillColor=#000000;exitX=0.5;exitY=1;exitDx=0;exitDy=0;" edge="1" parent="1" source="VM5iFO8BAajWmUZdtVKz-7">
          <mxGeometry width="50" height="50" relative="1" as="geometry">
            <mxPoint x="490" y="220" as="sourcePoint" />
            <mxPoint x="490" y="240" as="targetPoint" />
          </mxGeometry>
        </mxCell>
        <mxCell id="VM5iFO8BAajWmUZdtVKz-7" value="" style="ellipse;whiteSpace=wrap;html=1;aspect=fixed;strokeWidth=1;fillColor=#000000;" vertex="1" parent="1">
          <mxGeometry x="485" y="200" width="10" height="10" as="geometry" />
        </mxCell>
        <mxCell id="VM5iFO8BAajWmUZdtVKz-8" value="Codice" style="text;html=1;align=center;verticalAlign=middle;resizable=0;points=[];autosize=1;strokeColor=none;fillColor=none;" vertex="1" parent="1">
          <mxGeometry x="465" y="180" width="50" height="20" as="geometry" />
        </mxCell>
        <mxCell id="VM5iFO8BAajWmUZdtVKz-9" value="" style="endArrow=none;html=1;rounded=0;fillColor=#000000;entryX=0.166;entryY=0;entryDx=0;entryDy=0;entryPerimeter=0;exitX=0.5;exitY=1;exitDx=0;exitDy=0;" edge="1" parent="1" source="VM5iFO8BAajWmUZdtVKz-10">
          <mxGeometry width="50" height="50" relative="1" as="geometry">
            <mxPoint x="540" y="220" as="sourcePoint" />
            <mxPoint x="539.9199999999998" y="240" as="targetPoint" />
          </mxGeometry>
        </mxCell>
        <mxCell id="VM5iFO8BAajWmUZdtVKz-10" value="" style="ellipse;whiteSpace=wrap;html=1;aspect=fixed;strokeWidth=1;fillColor=none;" vertex="1" parent="1">
          <mxGeometry x="535" y="200" width="10" height="10" as="geometry" />
        </mxCell>
        <mxCell id="VM5iFO8BAajWmUZdtVKz-11" value="Nome" style="text;html=1;align=center;verticalAlign=middle;resizable=0;points=[];autosize=1;strokeColor=none;fillColor=none;" vertex="1" parent="1">
          <mxGeometry x="515" y="181" width="50" height="20" as="geometry" />
        </mxCell>
        <mxCell id="VM5iFO8BAajWmUZdtVKz-12" value="" style="endArrow=none;html=1;rounded=0;fillColor=#000000;exitX=0.5;exitY=1;exitDx=0;exitDy=0;entryX=0.919;entryY=-0.003;entryDx=0;entryDy=0;entryPerimeter=0;" edge="1" parent="1" source="VM5iFO8BAajWmUZdtVKz-13" target="xCrdhjZaUTvb06V7xQC9-25">
          <mxGeometry width="50" height="50" relative="1" as="geometry">
            <mxPoint x="590" y="220" as="sourcePoint" />
            <mxPoint x="590" y="230" as="targetPoint" />
          </mxGeometry>
        </mxCell>
        <mxCell id="VM5iFO8BAajWmUZdtVKz-13" value="" style="ellipse;whiteSpace=wrap;html=1;aspect=fixed;strokeWidth=1;fillColor=none;" vertex="1" parent="1">
          <mxGeometry x="585" y="200" width="10" height="10" as="geometry" />
        </mxCell>
        <mxCell id="VM5iFO8BAajWmUZdtVKz-14" value="Cognome" style="text;html=1;align=center;verticalAlign=middle;resizable=0;points=[];autosize=1;strokeColor=none;fillColor=none;" vertex="1" parent="1">
          <mxGeometry x="555" y="181" width="70" height="20" as="geometry" />
        </mxCell>
      </root>
    </mxGraphModel>
  </diagram>
</mxfile>
